<svg width="30" height="30" viewBox="0 0 30 30" fill="none" xmlns="http://www.w3.org/2000/svg">
<path d="M11.25 27.5H18.75C25 27.5 27.5 25 27.5 18.75V11.25C27.5 5 25 2.5 18.75 2.5H11.25C5 2.5 2.5 5 2.5 11.25V18.75C2.5 25 5 27.5 11.25 27.5Z" fill="#4AD2CA" fill-opacity="0.2"/>
<path d="M16.1375 9.79995L9.64998 16.2874C9.39998 16.5374 9.16249 17.0249 9.11249 17.3749L8.76249 19.8499C8.63749 20.7499 9.26249 21.3749 10.1625 21.2499L12.6375 20.8999C12.9875 20.8499 13.475 20.6124 13.725 20.3624L20.2125 13.8749C21.325 12.7624 21.8625 11.4624 20.2125 9.81244C18.5625 8.14994 17.2625 8.67495 16.1375 9.79995Z" stroke="#008179" stroke-width="1.5" stroke-miterlimit="10" stroke-linecap="round" stroke-linejoin="round"/>
<path d="M15.2125 10.725C15.7625 12.6875 17.3 14.2375 19.275 14.7875" stroke="#008179" stroke-width="1.5" stroke-miterlimit="10" stroke-linecap="round" stroke-linejoin="round"/>
</svg>
