<svg width="38" height="29" viewBox="0 0 38 29" fill="none" xmlns="http://www.w3.org/2000/svg">
<path d="M4.29387 26.4721C8.86786 29.5879 16.226 29.5572 20.7449 26.4035L37.8396 14.4731L35.5827 12.9357L18.488 24.8661C15.2028 27.1588 9.84878 27.1811 6.52361 24.916C3.19845 22.6509 3.16603 18.9593 6.45119 16.6666L25.0324 3.69881C26.018 3.01095 27.3595 2.62123 28.7619 2.61538C30.1642 2.60953 31.5125 2.98802 32.5101 3.66759C33.5077 4.34717 34.0729 5.27216 34.0814 6.23908C34.0899 7.20599 33.541 8.13563 32.5554 8.82349L16.9472 19.7164C16.1296 20.287 14.7836 20.2926 13.9561 19.7289C13.1286 19.1652 13.1204 18.2371 13.938 17.6665L28.0597 7.81104L25.8028 6.27363L11.6811 16.1291C10.6955 16.817 10.1465 17.7466 10.155 18.7135C10.1635 19.6805 10.7287 20.6054 11.7263 21.285C12.724 21.9646 14.0722 22.3431 15.4746 22.3372C16.8769 22.3314 18.2185 21.9417 19.2041 21.2538L34.8123 10.3609C38.0974 8.06819 38.065 4.37657 34.7398 2.11146C31.4147 -0.153646 26.0606 -0.131298 22.7755 2.1614L4.19428 15.1292C-0.324657 18.2829 -0.280113 23.3563 4.29387 26.4721Z" fill="#0DB4AA"/>
</svg>
