<svg width="46" height="63" viewBox="0 0 46 63" fill="none" xmlns="http://www.w3.org/2000/svg">
<g filter="url(#filter0_b_723_463)">
<path d="M17.8889 57H28.1111C28.1111 60.3 25.8111 63 23 63C20.1889 63 17.8889 60.3 17.8889 57ZM46 51V54H0V51L5.11111 45V27C5.11111 17.7 10.2222 9.6 17.8889 6.9V6C17.8889 2.7 20.1889 0 23 0C25.8111 0 28.1111 2.7 28.1111 6V6.9C35.7778 9.6 40.8889 17.7 40.8889 27V45L46 51ZM35.7778 27C35.7778 18.6 30.1556 12 23 12C15.8444 12 10.2222 18.6 10.2222 27V48H35.7778V27Z" fill="#FF7A00"/>
</g>
<defs>
<filter id="filter0_b_723_463" x="-4" y="-4" width="54" height="71" filterUnits="userSpaceOnUse" color-interpolation-filters="sRGB">
<feFlood flood-opacity="0" result="BackgroundImageFix"/>
<feGaussianBlur in="BackgroundImageFix" stdDeviation="2"/>
<feComposite in2="SourceAlpha" operator="in" result="effect1_backgroundBlur_723_463"/>
<feBlend mode="normal" in="SourceGraphic" in2="effect1_backgroundBlur_723_463" result="shape"/>
</filter>
</defs>
</svg>
