<svg width="56" height="66" viewBox="0 0 56 66" fill="none" xmlns="http://www.w3.org/2000/svg">
<rect width="56" height="66" fill="white"/>
<path d="M50.5713 51.0219C49.0713 49.4459 47.758 47.6391 46.6668 45.6502C45.4756 42.9049 44.7617 39.9068 44.5668 36.8319V27.7752C44.5771 22.9455 43.0907 18.2776 40.3867 14.6485C37.6827 11.0194 33.9473 8.67897 29.8824 8.06689V5.70189C29.8824 5.05278 29.6636 4.43025 29.2742 3.97125C28.8847 3.51226 28.3565 3.25439 27.8057 3.25439C27.255 3.25439 26.7268 3.51226 26.3373 3.97125C25.9479 4.43025 25.7291 5.05278 25.7291 5.70189V8.10356C21.7006 8.75976 18.0104 11.1144 15.3419 14.7313C12.6734 18.3482 11.2075 22.9822 11.2157 27.7752V36.8319C11.0209 39.9068 10.3069 42.9049 9.11574 45.6502C8.04378 47.6345 6.7516 49.4411 5.27352 51.0219C5.10759 51.1937 4.9746 51.4052 4.88341 51.6423C4.79222 51.8793 4.74491 52.1366 4.74463 52.3969V54.8902C4.74463 55.3765 4.90852 55.8428 5.20024 56.1866C5.49196 56.5304 5.88763 56.7236 6.30018 56.7236H49.5446C49.9572 56.7236 50.3528 56.5304 50.6446 56.1866C50.9363 55.8428 51.1002 55.3765 51.1002 54.8902V52.3969C51.0999 52.1366 51.0526 51.8793 50.9614 51.6423C50.8702 51.4052 50.7372 51.1937 50.5713 51.0219ZM7.98018 53.0569C9.42749 51.4091 10.7018 49.5626 11.7757 47.5569C13.2762 44.2413 14.1517 40.5829 14.3424 36.8319V27.7752C14.2807 25.6266 14.5865 23.4854 15.2416 21.479C15.8967 19.4725 16.8876 17.642 18.1555 16.0963C19.4233 14.5507 20.9421 13.3215 22.6214 12.4821C24.3006 11.6426 26.1061 11.21 27.9302 11.21C29.7543 11.21 31.5597 11.6426 33.239 12.4821C34.9183 13.3215 36.4371 14.5507 37.7049 16.0963C38.9727 17.642 39.9637 19.4725 40.6188 21.479C41.2739 23.4854 41.5797 25.6266 41.518 27.7752V36.8319C41.7086 40.5829 42.5841 44.2413 44.0846 47.5569C45.1586 49.5626 46.4329 51.4091 47.8802 53.0569H7.98018Z" fill="#FF7A00"/>
<path d="M27.9999 62.8465C28.9798 62.8199 29.9202 62.3857 30.6547 61.6208C31.3891 60.8558 31.8704 59.8093 32.0133 58.6665H23.8311C23.978 59.8404 24.4818 60.9114 25.2486 61.6803C26.0155 62.4492 26.9932 62.8637 27.9999 62.8465V62.8465Z" fill="#FF7A00"/>
</svg>
