<svg width="48" height="54" viewBox="0 0 48 54" fill="none" xmlns="http://www.w3.org/2000/svg">
<path d="M46.5713 48.0219C45.0713 46.4459 43.758 44.6391 42.6669 42.6502C41.4756 39.9049 40.7617 36.9068 40.5668 33.8319V24.7752C40.5771 19.9455 39.0907 15.2776 36.3867 11.6485C33.6827 8.01942 29.9473 5.67897 25.8824 5.06689V2.70189C25.8824 2.05278 25.6636 1.43025 25.2742 0.971251C24.8847 0.512256 24.3565 0.254395 23.8057 0.254395C23.255 0.254395 22.7268 0.512256 22.3373 0.971251C21.9479 1.43025 21.7291 2.05278 21.7291 2.70189V5.10356C17.7006 5.75976 14.0104 8.11436 11.3419 11.7313C8.67343 15.3482 7.20754 19.9822 7.21574 24.7752V33.8319C7.02091 36.9068 6.30695 39.9049 5.11574 42.6502C4.04378 44.6345 2.7516 46.4411 1.27352 48.0219C1.10759 48.1937 0.974604 48.4052 0.883412 48.6423C0.792219 48.8793 0.744909 49.1366 0.744629 49.3969V51.8902C0.744629 52.3765 0.908517 52.8428 1.20024 53.1866C1.49196 53.5304 1.88763 53.7236 2.30018 53.7236H45.5446C45.9572 53.7236 46.3528 53.5304 46.6446 53.1866C46.9363 52.8428 47.1002 52.3765 47.1002 51.8902V49.3969C47.0999 49.1366 47.0526 48.8793 46.9614 48.6423C46.8702 48.4052 46.7372 48.1937 46.5713 48.0219ZM3.98018 50.0569C5.42749 48.4091 6.70178 46.5626 7.77574 44.5569C9.27625 41.2413 10.1517 37.5829 10.3424 33.8319V24.7752C10.2807 22.6266 10.5865 20.4854 11.2416 18.479C11.8967 16.4725 12.8876 14.642 14.1555 13.0963C15.4233 11.5507 16.9421 10.3215 18.6214 9.48206C20.3006 8.64259 22.1061 8.20998 23.9302 8.20998C25.7543 8.20998 27.5597 8.64259 29.239 9.48206C30.9183 10.3215 32.4371 11.5507 33.7049 13.0963C34.9727 14.642 35.9637 16.4725 36.6188 18.479C37.2739 20.4854 37.5797 22.6266 37.518 24.7752V33.8319C37.7086 37.5829 38.5841 41.2413 40.0846 44.5569C41.1586 46.5626 42.4329 48.4091 43.8802 50.0569H3.98018Z" fill="#FF7A00"/>
</svg>
