<svg width="27" height="26" viewBox="0 0 27 26" fill="none" xmlns="http://www.w3.org/2000/svg">
<path d="M9.38809 20.4967H8.83585C4.41794 20.4967 2.20898 19.4179 2.20898 14.0239V8.62998C2.20898 4.31481 4.41794 2.15723 8.83585 2.15723H17.6717C22.0896 2.15723 24.2985 4.31481 24.2985 8.62998V14.0239C24.2985 18.3391 22.0896 20.4967 17.6717 20.4967H17.1194C16.777 20.4967 16.4457 20.6585 16.2359 20.9282L14.5791 23.0858C13.8502 24.0351 12.6573 24.0351 11.9284 23.0858L10.2717 20.9282C10.095 20.6909 9.6863 20.4967 9.38809 20.4967Z" stroke="#0DB4AA" stroke-width="1.5" stroke-miterlimit="10" stroke-linecap="round" stroke-linejoin="round"/>
<path d="M17.6678 11.8661H17.6777" stroke="#0DB4AA" stroke-width="2" stroke-linecap="round" stroke-linejoin="round"/>
<path d="M13.2488 11.8661H13.2587" stroke="#0DB4AA" stroke-width="2" stroke-linecap="round" stroke-linejoin="round"/>
<path d="M8.82986 11.8661H8.83978" stroke="#0DB4AA" stroke-width="2" stroke-linecap="round" stroke-linejoin="round"/>
</svg>
