<svg width="27" height="27" viewBox="0 0 27 27" fill="none" xmlns="http://www.w3.org/2000/svg">
<path d="M9.38809 21.4772H8.83585C4.41794 21.4772 2.20898 20.3984 2.20898 15.0044V9.61045C2.20898 5.29528 4.41794 3.1377 8.83585 3.1377H17.6717C22.0896 3.1377 24.2985 5.29528 24.2985 9.61045V15.0044C24.2985 19.3196 22.0896 21.4772 17.6717 21.4772H17.1194C16.777 21.4772 16.4457 21.639 16.2359 21.9087L14.5791 24.0663C13.8502 25.0156 12.6573 25.0156 11.9284 24.0663L10.2717 21.9087C10.095 21.6714 9.6863 21.4772 9.38809 21.4772Z" stroke="#787486" stroke-width="1.5" stroke-miterlimit="10" stroke-linecap="round" stroke-linejoin="round"/>
<path d="M17.6678 12.8465H17.6777" stroke="#787486" stroke-width="2" stroke-linecap="round" stroke-linejoin="round"/>
<path d="M13.2487 12.8465H13.2586" stroke="#787486" stroke-width="2" stroke-linecap="round" stroke-linejoin="round"/>
<path d="M8.82974 12.8465H8.83966" stroke="#787486" stroke-width="2" stroke-linecap="round" stroke-linejoin="round"/>
</svg>
