<svg width="12" height="12" viewBox="0 0 12 12" fill="none" xmlns="http://www.w3.org/2000/svg">
<path d="M6 11.25C4.55 11.25 3.3125 10.7375 2.2875 9.7125C1.2625 8.6875 0.75 7.45 0.75 6C0.75 4.55 1.2625 3.3125 2.2875 2.2875C3.3125 1.2625 4.55 0.75 6 0.75C7.45 0.75 8.6875 1.2625 9.7125 2.2875C10.7375 3.3125 11.25 4.55 11.25 6C11.25 7.45 10.7375 8.6875 9.7125 9.7125C8.6875 10.7375 7.45 11.25 6 11.25ZM6 9.75C7.0375 9.75 7.92188 9.38438 8.65313 8.65313C9.38438 7.92188 9.75 7.0375 9.75 6C9.75 4.9625 9.38438 4.07812 8.65313 3.34688C7.92188 2.61563 7.0375 2.25 6 2.25C4.9625 2.25 4.07812 2.61563 3.34688 3.34688C2.61563 4.07812 2.25 4.9625 2.25 6C2.25 7.0375 2.61563 7.92188 3.34688 8.65313C4.07812 9.38438 4.9625 9.75 6 9.75Z" fill="#1C1B1F"/>
</svg>
