<svg width="22" height="21" viewBox="0 0 22 21" fill="none" xmlns="http://www.w3.org/2000/svg">
<path d="M11 9.375C8.08333 9.375 5.60417 8.93437 3.5625 8.05312C1.52083 7.17187 0.5 6.1125 0.5 4.875C0.5 3.6375 1.52083 2.57813 3.5625 1.69688C5.60417 0.815625 8.08333 0.375 11 0.375C13.9167 0.375 16.3958 0.815625 18.4375 1.69688C20.4792 2.57813 21.5 3.6375 21.5 4.875C21.5 6.1125 20.4792 7.17187 18.4375 8.05312C16.3958 8.93437 13.9167 9.375 11 9.375ZM11 15C8.08333 15 5.60417 14.5594 3.5625 13.6781C1.52083 12.7969 0.5 11.7375 0.5 10.5V7.6875C0.5 8.5125 0.898611 9.21112 1.69583 9.78337C2.49306 10.3549 3.44583 10.8188 4.55417 11.175C5.6625 11.5312 6.81478 11.7889 8.011 11.9479C9.20644 12.1076 10.2028 12.1875 11 12.1875C11.7972 12.1875 12.7936 12.1076 13.989 11.9479C15.1852 11.7889 16.3375 11.5312 17.4458 11.175C18.5542 10.8188 19.5069 10.3549 20.3042 9.78337C21.1014 9.21112 21.5 8.5125 21.5 7.6875V10.5C21.5 11.7375 20.4792 12.7969 18.4375 13.6781C16.3958 14.5594 13.9167 15 11 15ZM11 20.625C8.08333 20.625 5.60417 20.1844 3.5625 19.3031C1.52083 18.4219 0.5 17.3625 0.5 16.125V13.3125C0.5 14.1375 0.898611 14.8361 1.69583 15.4084C2.49306 15.9799 3.44583 16.4438 4.55417 16.8C5.6625 17.1562 6.81478 17.4142 8.011 17.574C9.20644 17.733 10.2028 17.8125 11 17.8125C11.7972 17.8125 12.7936 17.733 13.989 17.574C15.1852 17.4142 16.3375 17.1562 17.4458 16.8C18.5542 16.4438 19.5069 15.9799 20.3042 15.4084C21.1014 14.8361 21.5 14.1375 21.5 13.3125V16.125C21.5 17.3625 20.4792 18.4219 18.4375 19.3031C16.3958 20.1844 13.9167 20.625 11 20.625Z" fill="#0DB4AA"/>
</svg>
