<svg width="22" height="21" viewBox="0 0 22 21" fill="none" xmlns="http://www.w3.org/2000/svg">
<path d="M11 9.35498C8.08333 9.35498 5.60417 8.91436 3.5625 8.03311C1.52083 7.15185 0.5 6.09248 0.5 4.85498C0.5 3.61748 1.52083 2.55811 3.5625 1.67686C5.60417 0.795606 8.08333 0.35498 11 0.35498C13.9167 0.35498 16.3958 0.795606 18.4375 1.67686C20.4792 2.55811 21.5 3.61748 21.5 4.85498C21.5 6.09248 20.4792 7.15185 18.4375 8.03311C16.3958 8.91436 13.9167 9.35498 11 9.35498ZM11 14.98C8.08333 14.98 5.60417 14.5394 3.5625 13.6581C1.52083 12.7769 0.5 11.7175 0.5 10.48V7.66748C0.5 8.49248 0.898611 9.1911 1.69583 9.76336C2.49306 10.3349 3.44583 10.7987 4.55417 11.155C5.6625 11.5112 6.81478 11.7689 8.011 11.9279C9.20644 12.0876 10.2028 12.1675 11 12.1675C11.7972 12.1675 12.7936 12.0876 13.989 11.9279C15.1852 11.7689 16.3375 11.5112 17.4458 11.155C18.5542 10.7987 19.5069 10.3349 20.3042 9.76336C21.1014 9.1911 21.5 8.49248 21.5 7.66748V10.48C21.5 11.7175 20.4792 12.7769 18.4375 13.6581C16.3958 14.5394 13.9167 14.98 11 14.98ZM11 20.605C8.08333 20.605 5.60417 20.1644 3.5625 19.2831C1.52083 18.4019 0.5 17.3425 0.5 16.105V13.2925C0.5 14.1175 0.898611 14.8161 1.69583 15.3884C2.49306 15.9599 3.44583 16.4237 4.55417 16.78C5.6625 17.1362 6.81478 17.3942 8.011 17.554C9.20644 17.713 10.2028 17.7925 11 17.7925C11.7972 17.7925 12.7936 17.713 13.989 17.554C15.1852 17.3942 16.3375 17.1362 17.4458 16.78C18.5542 16.4237 19.5069 15.9599 20.3042 15.3884C21.1014 14.8161 21.5 14.1175 21.5 13.2925V16.105C21.5 17.3425 20.4792 18.4019 18.4375 19.2831C16.3958 20.1644 13.9167 20.605 11 20.605Z" fill="#787486"/>
</svg>
