<svg width="22" height="21" viewBox="0 0 22 21" fill="none" xmlns="http://www.w3.org/2000/svg">
	<path d="M2.83333 20.6833C2.19167 20.6833 1.64217 20.4626 1.18483 20.0213C0.728278 19.5792 0.5 19.048 0.5 18.4277V2.63886C0.5 2.01858 0.728278 1.4874 1.18483 1.04531C1.64217 0.603969 2.19167 0.383301 2.83333 0.383301H15.6667L21.5 6.02219V18.4277C21.5 19.048 21.2717 19.5792 20.8152 20.0213C20.3578 20.4626 19.8083 20.6833 19.1667 20.6833H2.83333ZM2.83333 18.4277H19.1667V7.14997H14.5V2.63886H2.83333V18.4277ZM5.16667 16.1722H16.8333V13.9166H5.16667V16.1722ZM5.16667 7.14997H11V4.89441H5.16667V7.14997ZM5.16667 11.6611H16.8333V9.40552H5.16667V11.6611Z" fill="#0DB4AA"/>
</svg>
