<svg width="22" height="26" viewBox="0 0 22 26" fill="none" xmlns="http://www.w3.org/2000/svg">
<path d="M11 25.2498C9.6 23.9276 7.99583 22.9165 6.1875 22.2165C4.37917 21.5165 2.48333 21.1665 0.5 21.1665V8.33317C2.46389 8.33317 4.35 8.68784 6.15833 9.39717C7.96667 10.1073 9.58055 11.1332 11 12.4748C12.4194 11.1332 14.0333 10.1073 15.8417 9.39717C17.65 8.68784 19.5361 8.33317 21.5 8.33317V21.1665C19.4972 21.1665 17.5967 21.5165 15.7985 22.2165C13.9995 22.9165 12.4 23.9276 11 25.2498ZM11 22.2165C12.225 21.3026 13.5278 20.5735 14.9083 20.029C16.2889 19.4846 17.7083 19.1248 19.1667 18.9498V10.8998C17.7472 11.1526 16.3523 11.6628 14.9818 12.4305C13.6106 13.1989 12.2833 14.2248 11 15.5082C9.71667 14.2248 8.38978 13.1989 7.01933 12.4305C5.64811 11.6628 4.25278 11.1526 2.83333 10.8998V18.9498C4.29167 19.1248 5.71111 19.4846 7.09167 20.029C8.47222 20.5735 9.775 21.3026 11 22.2165ZM11 9.49984C9.71667 9.49984 8.61806 9.04289 7.70417 8.129C6.79028 7.21512 6.33333 6.1165 6.33333 4.83317C6.33333 3.54984 6.79028 2.45123 7.70417 1.53734C8.61806 0.623448 9.71667 0.166504 11 0.166504C12.2833 0.166504 13.3819 0.623448 14.2958 1.53734C15.2097 2.45123 15.6667 3.54984 15.6667 4.83317C15.6667 6.1165 15.2097 7.21512 14.2958 8.129C13.3819 9.04289 12.2833 9.49984 11 9.49984ZM11 7.1665C11.6417 7.1665 12.1912 6.93784 12.6485 6.4805C13.1051 6.02395 13.3333 5.47484 13.3333 4.83317C13.3333 4.1915 13.1051 3.642 12.6485 3.18467C12.1912 2.72812 11.6417 2.49984 11 2.49984C10.3583 2.49984 9.80922 2.72812 9.35267 3.18467C8.89533 3.642 8.66667 4.1915 8.66667 4.83317C8.66667 5.47484 8.89533 6.02395 9.35267 6.4805C9.80922 6.93784 10.3583 7.1665 11 7.1665Z" fill="#0DB4AA"/>
</svg>
