<svg width="27" height="26" viewBox="0 0 27 26" fill="none" xmlns="http://www.w3.org/2000/svg">
<path d="M7.73133 11.597H5.52238C2.84954 11.597 1.38058 10.1622 1.38058 7.55157V5.39398C1.38058 2.78331 2.84954 1.34851 5.52238 1.34851H7.73133C10.4042 1.34851 11.8731 2.78331 11.8731 5.39398V7.55157C11.8731 10.1622 10.4042 11.597 7.73133 11.597ZM5.52238 2.9667C3.7773 2.9667 3.0373 3.68949 3.0373 5.39398V7.55157C3.0373 9.25606 3.7773 9.97885 5.52238 9.97885H7.73133C9.47641 9.97885 10.2164 9.25606 10.2164 7.55157V5.39398C10.2164 3.68949 9.47641 2.9667 7.73133 2.9667H5.52238Z" fill="#787486"/>
<path d="M20.9851 11.597H18.7761C16.1033 11.597 14.6343 10.1622 14.6343 7.55157V5.39398C14.6343 2.78331 16.1033 1.34851 18.7761 1.34851H20.9851C23.6579 1.34851 25.1269 2.78331 25.1269 5.39398V7.55157C25.1269 10.1622 23.6579 11.597 20.9851 11.597ZM18.7761 2.9667C17.0311 2.9667 16.2911 3.68949 16.2911 5.39398V7.55157C16.2911 9.25606 17.0311 9.97885 18.7761 9.97885H20.9851C22.7302 9.97885 23.4702 9.25606 23.4702 7.55157V5.39398C23.4702 3.68949 22.7302 2.9667 20.9851 2.9667H18.7761Z" fill="#787486"/>
<path d="M20.9851 24.5425H18.7761C16.1033 24.5425 14.6343 23.1077 14.6343 20.497V18.3394C14.6343 15.7287 16.1033 14.2939 18.7761 14.2939H20.9851C23.6579 14.2939 25.1269 15.7287 25.1269 18.3394V20.497C25.1269 23.1077 23.6579 24.5425 20.9851 24.5425ZM18.7761 15.9121C17.0311 15.9121 16.2911 16.6349 16.2911 18.3394V20.497C16.2911 22.2015 17.0311 22.9243 18.7761 22.9243H20.9851C22.7302 22.9243 23.4702 22.2015 23.4702 20.497V18.3394C23.4702 16.6349 22.7302 15.9121 20.9851 15.9121H18.7761Z" fill="#787486"/>
<path d="M7.73133 24.5425H5.52238C2.84954 24.5425 1.38058 23.1077 1.38058 20.497V18.3394C1.38058 15.7287 2.84954 14.2939 5.52238 14.2939H7.73133C10.4042 14.2939 11.8731 15.7287 11.8731 18.3394V20.497C11.8731 23.1077 10.4042 24.5425 7.73133 24.5425ZM5.52238 15.9121C3.7773 15.9121 3.0373 16.6349 3.0373 18.3394V20.497C3.0373 22.2015 3.7773 22.9243 5.52238 22.9243H7.73133C9.47641 22.9243 10.2164 22.2015 10.2164 20.497V18.3394C10.2164 16.6349 9.47641 15.9121 7.73133 15.9121H5.52238Z" fill="#787486"/>
</svg>
