<svg width="28" height="29" viewBox="0 0 28 29" fill="none" xmlns="http://www.w3.org/2000/svg">
<mask id="mask0_353_743" style="mask-type:alpha" maskUnits="userSpaceOnUse" x="0" y="0" width="28" height="29">
<rect y="0.97998" width="28" height="28" fill="#D9D9D9"/>
</mask>
<g mask="url(#mask0_353_743)">
<path d="M5.83333 26.6468C5.19167 26.6468 4.64217 26.4185 4.18483 25.962C3.72828 25.5046 3.5 24.9551 3.5 24.3135V7.98014C3.5 7.33848 3.72828 6.78937 4.18483 6.33281C4.64217 5.87548 5.19167 5.64681 5.83333 5.64681H7V3.31348H9.33333V5.64681H18.6667V3.31348H21V5.64681H22.1667C22.8083 5.64681 23.3578 5.87548 23.8152 6.33281C24.2717 6.78937 24.5 7.33848 24.5 7.98014V24.3135C24.5 24.9551 24.2717 25.5046 23.8152 25.962C23.3578 26.4185 22.8083 26.6468 22.1667 26.6468H5.83333ZM5.83333 24.3135H22.1667V12.6468H5.83333V24.3135ZM5.83333 10.3135H22.1667V7.98014H5.83333V10.3135ZM14 17.3135C13.6694 17.3135 13.3926 17.2015 13.1693 16.9775C12.9453 16.7543 12.8333 16.4774 12.8333 16.1468C12.8333 15.8163 12.9453 15.539 13.1693 15.315C13.3926 15.0918 13.6694 14.9801 14 14.9801C14.3306 14.9801 14.6078 15.0918 14.8318 15.315C15.0551 15.539 15.1667 15.8163 15.1667 16.1468C15.1667 16.4774 15.0551 16.7543 14.8318 16.9775C14.6078 17.2015 14.3306 17.3135 14 17.3135ZM9.33333 17.3135C9.00278 17.3135 8.7255 17.2015 8.5015 16.9775C8.27828 16.7543 8.16667 16.4774 8.16667 16.1468C8.16667 15.8163 8.27828 15.539 8.5015 15.315C8.7255 15.0918 9.00278 14.9801 9.33333 14.9801C9.66389 14.9801 9.94117 15.0918 10.1652 15.315C10.3884 15.539 10.5 15.8163 10.5 16.1468C10.5 16.4774 10.3884 16.7543 10.1652 16.9775C9.94117 17.2015 9.66389 17.3135 9.33333 17.3135ZM18.6667 17.3135C18.3361 17.3135 18.0592 17.2015 17.836 16.9775C17.612 16.7543 17.5 16.4774 17.5 16.1468C17.5 15.8163 17.612 15.539 17.836 15.315C18.0592 15.0918 18.3361 14.9801 18.6667 14.9801C18.9972 14.9801 19.2741 15.0918 19.4973 15.315C19.7213 15.539 19.8333 15.8163 19.8333 16.1468C19.8333 16.4774 19.7213 16.7543 19.4973 16.9775C19.2741 17.2015 18.9972 17.3135 18.6667 17.3135ZM14 21.9801C13.6694 21.9801 13.3926 21.8681 13.1693 21.6441C12.9453 21.4209 12.8333 21.144 12.8333 20.8135C12.8333 20.4829 12.9453 20.206 13.1693 19.9828C13.3926 19.7588 13.6694 19.6468 14 19.6468C14.3306 19.6468 14.6078 19.7588 14.8318 19.9828C15.0551 20.206 15.1667 20.4829 15.1667 20.8135C15.1667 21.144 15.0551 21.4209 14.8318 21.6441C14.6078 21.8681 14.3306 21.9801 14 21.9801ZM9.33333 21.9801C9.00278 21.9801 8.7255 21.8681 8.5015 21.6441C8.27828 21.4209 8.16667 21.144 8.16667 20.8135C8.16667 20.4829 8.27828 20.206 8.5015 19.9828C8.7255 19.7588 9.00278 19.6468 9.33333 19.6468C9.66389 19.6468 9.94117 19.7588 10.1652 19.9828C10.3884 20.206 10.5 20.4829 10.5 20.8135C10.5 21.144 10.3884 21.4209 10.1652 21.6441C9.94117 21.8681 9.66389 21.9801 9.33333 21.9801ZM18.6667 21.9801C18.3361 21.9801 18.0592 21.8681 17.836 21.6441C17.612 21.4209 17.5 21.144 17.5 20.8135C17.5 20.4829 17.612 20.206 17.836 19.9828C18.0592 19.7588 18.3361 19.6468 18.6667 19.6468C18.9972 19.6468 19.2741 19.7588 19.4973 19.9828C19.7213 20.206 19.8333 20.4829 19.8333 20.8135C19.8333 21.144 19.7213 21.4209 19.4973 21.6441C19.2741 21.8681 18.9972 21.9801 18.6667 21.9801Z" fill="#787486"/>
</g>
</svg>
