<svg width="32" height="35" viewBox="0 0 32 35" fill="none" xmlns="http://www.w3.org/2000/svg">
<path d="M30.4897 19.4222C30.8124 19.2435 31.0838 18.969 31.2734 18.6296C31.463 18.2901 31.5635 17.8991 31.5635 17.5001C31.5635 17.1012 31.463 16.7101 31.2734 16.3707C31.0838 16.0312 30.8125 15.7568 30.4897 15.578L3.25413 0.52804C2.91644 0.341299 2.53686 0.267212 2.16171 0.314816C1.78656 0.362419 1.43206 0.529657 1.14145 0.796126C0.850836 1.0626 0.636679 1.41678 0.525097 1.81547C0.413513 2.21416 0.409332 2.64012 0.513063 3.04139L3.29304 13.7914C3.40932 14.2407 3.65489 14.6359 3.99258 14.9171C4.33026 15.1984 4.74167 15.3504 5.16452 15.3501L14.0569 15.3501C14.5729 15.3501 15.0677 15.5767 15.4325 15.9799C15.7974 16.3831 16.0023 16.9299 16.0023 17.5001C16.0023 18.0704 15.7974 18.6172 15.4325 19.0204C15.0677 19.4236 14.5729 19.6501 14.0569 19.6501L5.16451 19.6501C4.74167 19.6499 4.33026 19.8019 3.99258 20.0831C3.65489 20.3644 3.40932 20.7596 3.29304 21.2089L0.515004 31.9589C0.411069 32.36 0.415 32.7859 0.526318 33.1846C0.637635 33.5834 0.851531 33.9377 1.14192 34.2043C1.4323 34.471 1.78663 34.6386 2.16169 34.6865C2.53674 34.7345 2.91632 34.6608 3.25413 34.4744L30.4897 19.4244L30.4897 19.4222Z" fill="#0DB4AA"/>
</svg>
