<svg width="31" height="26" viewBox="0 0 31 26" fill="none" xmlns="http://www.w3.org/2000/svg">
<path d="M11.6892 11.7593C11.5616 11.7485 11.4085 11.7485 11.2681 11.7593C8.23096 11.673 5.81909 9.56937 5.81909 6.98027C5.81909 4.33723 8.34581 2.19043 11.4851 2.19043C14.6116 2.19043 17.151 4.33723 17.151 6.98027C17.1383 9.56937 14.7264 11.673 11.6892 11.7593Z" stroke="#787486" stroke-width="1.5" stroke-linecap="round" stroke-linejoin="round"/>
<path d="M20.9412 4.34766C23.4168 4.34766 25.4076 6.04136 25.4076 8.12343C25.4076 10.1624 23.4934 11.8237 21.1071 11.8992C21.005 11.8884 20.8901 11.8884 20.7753 11.8992" stroke="#787486" stroke-width="1.5" stroke-linecap="round" stroke-linejoin="round"/>
<path d="M5.30871 15.7399C2.2205 17.4876 2.2205 20.3356 5.30871 22.0724C8.81804 24.0574 14.5733 24.0574 18.0827 22.0724C21.1709 20.3248 21.1709 17.4768 18.0827 15.7399C14.5861 13.7657 8.8308 13.7657 5.30871 15.7399Z" stroke="#787486" stroke-width="1.5" stroke-linecap="round" stroke-linejoin="round"/>
<path d="M23.4041 21.6085C24.3229 21.4467 25.1906 21.1338 25.9052 20.6699C27.896 19.4078 27.896 17.3257 25.9052 16.0635C25.2034 15.6104 24.3484 15.3083 23.4423 15.1357" stroke="#787486" stroke-width="1.5" stroke-linecap="round" stroke-linejoin="round"/>
</svg>
