<svg width="31" height="26" viewBox="0 0 31 26" fill="none" xmlns="http://www.w3.org/2000/svg">
<path d="M11.6892 11.7793C11.5616 11.7686 11.4085 11.7686 11.2681 11.7793C8.23096 11.693 5.81909 9.58939 5.81909 7.00029C5.81909 4.35725 8.34581 2.21045 11.4851 2.21045C14.6116 2.21045 17.151 4.35725 17.151 7.00029C17.1383 9.58939 14.7264 11.693 11.6892 11.7793Z" stroke="#0DB4AA" stroke-width="1.5" stroke-linecap="round" stroke-linejoin="round"/>
<path d="M20.941 4.36768C23.4167 4.36768 25.4075 6.06138 25.4075 8.14345C25.4075 10.1824 23.4933 11.8437 21.1069 11.9192C21.0048 11.9084 20.89 11.9084 20.7751 11.9192" stroke="#0DB4AA" stroke-width="1.5" stroke-linecap="round" stroke-linejoin="round"/>
<path d="M5.30859 15.7599C2.22038 17.5076 2.22038 20.3556 5.30859 22.0925C8.81792 24.0774 14.5732 24.0774 18.0825 22.0925C21.1708 20.3448 21.1708 17.4968 18.0825 15.7599C14.586 13.7857 8.83068 13.7857 5.30859 15.7599Z" stroke="#0DB4AA" stroke-width="1.5" stroke-linecap="round" stroke-linejoin="round"/>
<path d="M23.4041 21.6285C24.3229 21.4667 25.1906 21.1538 25.9052 20.69C27.896 19.4278 27.896 17.3457 25.9052 16.0835C25.2034 15.6304 24.3484 15.3284 23.4423 15.1558" stroke="#0DB4AA" stroke-width="1.5" stroke-linecap="round" stroke-linejoin="round"/>
</svg>
